# xmcd
#
# Track frame offsets: 
#        165
#        16479
#        45662
#        63792
#        90088
#        110630
#        129009
#        148870
#        159965
#        182893
#        197003
#        216966
#        237709
#        254316
#        267536
#        286623
#
# Disc length: 4071 seconds
#
# Revision: 0
# Processed by: cddbd v1.4b42PL1 Copyright (c) Steve Scherf et al.
# Submitted via: ExactAudioCopy v0.90a11
#
DISCID=e10fe510
DTITLE=Paris Washboard - Wild Cat Blues
DYEAR=1900
DGENRE=
TTITLE0=Up Jumped You With Love
TTITLE1=Ain't Misbehavin'
TTITLE2=Got A Bran' New Suit
TTITLE3=Our Love Was Meant To Be
TTITLE4=Paswonky
TTITLE5=Blue Turning Grey Over You
TTITLE6=Rump Steak Serenade
TTITLE7=Goin' About
TTITLE8=Willow Tree
TTITLE9=Anita
TTITLE10=Sweet Savannha Sue
TTITLE11=There's A Man [Gal] In My Life
TTITLE12=It's A Sin To Tell A Lie
TTITLE13=Alligator Crawl
TTITLE14=Honey Hush
TTITLE15=Wild Cat Blues
EXTD=Recorded February 29th - March 1 2000\nStudio 1, Paris, France\nw
EXTD=ww.stompoffrecords.com
EXTT0=
EXTT1=
EXTT2=
EXTT3=
EXTT4=
EXTT5=
EXTT6=
EXTT7=
EXTT8=
EXTT9=
EXTT10=
EXTT11=
EXTT12=
EXTT13=
EXTT14=
EXTT15=
PLAYORDER=
